<?xml version="1.0" encoding="UTF-8" standalone="no"?><!DOCTYPE svg PUBLIC "-//W3C//DTD SVG 1.1//EN" "http://www.w3.org/Graphics/SVG/1.1/DTD/svg11.dtd"><svg width="100%" height="100%" viewBox="0 0 241184 241184" version="1.1" xmlns="http://www.w3.org/2000/svg" xmlns:xlink="http://www.w3.org/1999/xlink" xml:space="preserve" xmlns:serif="http://www.serif.com/" style="fill-rule:evenodd;clip-rule:evenodd;stroke-linejoin:round;stroke-miterlimit:2;"><path d="M120592,0c66556.4,0 120592,54035.3 120592,120592c0,66556.4 -54035.3,120592 -120592,120592c-66556.4,0 -120592,-54035.3 -120592,-120592c0,-66556.4 54035.3,-120592 120592,-120592Zm34392.6,96858.4l-34370.2,-19792.2c-8533.28,-4977.75 -18844.3,-4977.75 -27377.8,0c-8533.28,4977.75 -13629.5,13748.1 -13629.5,23703.3l0,39703.5c0,9836.98 5096.27,18725.8 13629.5,23703.6c4266.88,2488.87 9007.59,3674.05 13629.8,3674.05c4740.71,-0 9362.91,-1185.18 13629.5,-3674.05l34370.2,-19792.5c8533.28,-4977.75 13629.5,-13748.1 13629.5,-23703.6c237.036,-9955.49 -4859.23,-18844.3 -13511,-23822.1Z" style="fill:#282a36;"/></svg>